HIERARCHY
ROOT hip
{
  OFFSET 0 0 0
  CHANNELS 6 Xposition Yposition Zposition Zrotation Yrotation Xrotation
  JOINT abdomen
  {
    OFFSET 0 20.6881 -0.73152
    CHANNELS 3 Zrotation Xrotation Yrotation
    JOINT chest
    {
      OFFSET 0 11.7043 -0.48768
      CHANNELS 3 Zrotation Xrotation Yrotation
      JOINT neck
      {
        OFFSET 0 22.1894 -2.19456
        CHANNELS 3 Zrotation Xrotation Yrotation
        JOINT head
        {
          OFFSET -0.24384 7.07133 1.2192
          CHANNELS 3 Zrotation Xrotation Yrotation
          JOINT leftEye
          {
            OFFSET 4.14528 8.04674 8.04672
            CHANNELS 3 Zrotation Xrotation Yrotation
            End Site
            {
              OFFSET 1 0 0
            }
          }
          JOINT rightEye
          {
            OFFSET -3.6576 8.04674 8.04672
            CHANNELS 3 Zrotation Xrotation Yrotation
            End Site
            {
              OFFSET 1 0 0
            }
          }
        }
      }
      JOINT rCollar
      {
        OFFSET -2.68224 19.2634 -4.8768
        CHANNELS 3 Zrotation Xrotation Yrotation
        JOINT rShldr
        {
          OFFSET -8.77824 -1.95073 1.46304
          CHANNELS 3 Zrotation Xrotation Yrotation
          JOINT rForeArm
          {
            OFFSET -28.1742 -1.7115 0.48768
            CHANNELS 3 Zrotation Xrotation Yrotation
            JOINT rHand
            {
              OFFSET -22.5879 0.773209 7.07136
              CHANNELS 3 Zrotation Xrotation Yrotation
              JOINT rThumb1
              {
                OFFSET -1.2192 -0.487915 3.41376
                CHANNELS 3 Zrotation Xrotation Yrotation
                JOINT rThumb2
                {
                  OFFSET -3.37035 -0.52449 3.41376
                  CHANNELS 3 Zrotation Xrotation Yrotation
                  End Site
                  {
                    OFFSET -1.78271 -1.18214 1.43049
                  }
                }
              }
              JOINT rIndex1
              {
                OFFSET -7.75947 0.938293 5.60832
                CHANNELS 3 Zrotation Xrotation Yrotation
                JOINT rIndex2
                {
                  OFFSET -2.54057 -0.884171 1.56538
                  CHANNELS 3 Zrotation Xrotation Yrotation
                  End Site
                  {
                    OFFSET -1.62519 -0.234802 1.16502
                  }
                }
              }
              JOINT rMid1
              {
                OFFSET -8.24714 1.18213 3.41376
                CHANNELS 3 Zrotation Xrotation Yrotation
                JOINT rMid2
                {
                  OFFSET -3.10165 -0.590103 1.0647
                  CHANNELS 3 Zrotation Xrotation Yrotation
                  End Site
                  {
                    OFFSET -2.48547 -0.328903 0.83742
                  }
                }
              }
              JOINT rRing1
              {
                OFFSET -8.82822 0.546677 1.51678
                CHANNELS 3 Zrotation Xrotation Yrotation
                JOINT rRing2
                {
                  OFFSET -2.60934 -0.819778 -0.0198488
                  CHANNELS 3 Zrotation Xrotation Yrotation
                  End Site
                  {
                    OFFSET -2.33842 -0.294052 0.168128
                  }
                }
              }
              JOINT rPinky1
              {
                OFFSET -8.27202 -0.0477905 -0.4584
                CHANNELS 3 Zrotation Xrotation Yrotation
                JOINT rPinky2
                {
                  OFFSET -1.82734 -0.647385 -0.700984
                  CHANNELS 3 Zrotation Xrotation Yrotation
                  End Site
                  {
                    OFFSET -1.69225 -0.51767 -0.607171
                  }
                }
              }
            }
          }
        }
      }
      JOINT lCollar
      {
        OFFSET 2.68224 19.2634 -4.8768
        CHANNELS 3 Zrotation Xrotation Yrotation
        JOINT lShldr
        {
          OFFSET 8.77824 -1.95073 1.46304
          CHANNELS 3 Zrotation Xrotation Yrotation
          JOINT lForeArm
          {
            OFFSET 28.1742 -1.7115 0.48768
            CHANNELS 3 Zrotation Xrotation Yrotation
            JOINT lHand
            {
              OFFSET 22.5879 0.773209 7.07136
              CHANNELS 3 Zrotation Xrotation Yrotation
              JOINT lThumb1
              {
                OFFSET 1.2192 -0.487915 3.41376
                CHANNELS 3 Zrotation Xrotation Yrotation
                JOINT lThumb2
                {
                  OFFSET 3.37035 -0.52449 3.41376
                  CHANNELS 3 Zrotation Xrotation Yrotation
                  End Site
                  {
                    OFFSET 1.78271 -1.18214 1.43049
                  }
                }
              }
              JOINT lIndex1
              {
                OFFSET 7.75947 0.938293 5.60832
                CHANNELS 3 Zrotation Xrotation Yrotation
                JOINT lIndex2
                {
                  OFFSET 2.54057 -0.884171 1.56538
                  CHANNELS 3 Zrotation Xrotation Yrotation
                  End Site
                  {
                    OFFSET 1.62519 -0.234802 1.16502
                  }
                }
              }
              JOINT lMid1
              {
                OFFSET 8.24714 1.18213 3.41376
                CHANNELS 3 Zrotation Xrotation Yrotation
                JOINT lMid2
                {
                  OFFSET 3.10165 -0.590103 1.0647
                  CHANNELS 3 Zrotation Xrotation Yrotation
                  End Site
                  {
                    OFFSET 2.48547 -0.328903 0.83742
                  }
                }
              }
              JOINT lRing1
              {
                OFFSET 8.82822 0.546677 1.51678
                CHANNELS 3 Zrotation Xrotation Yrotation
                JOINT lRing2
                {
                  OFFSET 2.60934 -0.819778 -0.0198488
                  CHANNELS 3 Zrotation Xrotation Yrotation
                  End Site
                  {
                    OFFSET 2.33842 -0.294052 0.168128
                  }
                }
              }
              JOINT lPinky1
              {
                OFFSET 8.27202 -0.0477905 -0.4584
                CHANNELS 3 Zrotation Xrotation Yrotation
                JOINT lPinky2
                {
                  OFFSET 1.82734 -0.647385 -0.700984
                  CHANNELS 3 Zrotation Xrotation Yrotation
                  End Site
                  {
                    OFFSET 1.69225 -0.51767 -0.607171
                  }
                }
              }
            }
          }
        }
      }
    }
  }
  JOINT rButtock
  {
    OFFSET -8.77824 4.35084 1.2192
    CHANNELS 3 Zrotation Xrotation Yrotation
    JOINT rThigh
    {
      OFFSET 0 -1.70687 -2.19456
      CHANNELS 3 Zrotation Xrotation Yrotation
      JOINT rShin
      {
        OFFSET 0 -36.8199 0.73152
        CHANNELS 3 Zrotation Xrotation Yrotation
        JOINT rFoot
        {
          OFFSET 0.73152 -45.1104 -5.12064
          CHANNELS 3 Zrotation Xrotation Yrotation
          End Site
          {
            OFFSET -1.1221 -3.69964 12.103
          }
        }
      }
    }
  }
  JOINT lButtock
  {
    OFFSET 8.77824 4.35084 1.2192
    CHANNELS 3 Zrotation Xrotation Yrotation
    JOINT lThigh
    {
      OFFSET 0 -1.70687 -2.19456
      CHANNELS 3 Zrotation Xrotation Yrotation
      JOINT lShin
      {
        OFFSET 0 -36.8199 0.73152
        CHANNELS 3 Zrotation Xrotation Yrotation
        JOINT lFoot
        {
          OFFSET -0.73152 -45.1104 -5.12064
          CHANNELS 3 Zrotation Xrotation Yrotation
          End Site
          {
            OFFSET 1.1221 -3.69964 12.103
          }
        }
      }
    }
  }
}
MOTION
Frames:	9
Frame Time:	0.00833333
-1.74144 82.4855 45.1965 0.0 0.0 0.0 -4.35894 0.00629241 -0.117455 -1.20158 0.0324762 -0.207681 -1.02638e-14 0.0 -2.98177e-16 -3.29175e-14 3.18055e-15 -5.49764e-16 -0.0 0.0 0.0 -0.0 0.0 0.0 -4.7716e-15 1.25017e-16 9.93923e-17 -1.12215e-13 2.23012e-15 -1.39149e-15 -1.91673e-12 6.72687e-13 1.27222e-14 -2.22059e-11 -1.2429e-13 -3.56222e-13 -5.23405e-11 1.1967e-12 -7.18805e-13 -9.04073e-11 2.06736e-12 -1.25234e-12 -5.2338e-11 1.19509e-12 -7.41069e-13 7.73091 5.47488 0.417314 -5.2342e-11 1.19648e-12 -7.25166e-13 2.90554 0.965183 0.102902 -5.23386e-11 1.19678e-12 -7.24371e-13 10.2786 0.731801 0.0259123 -5.23482e-11 1.20066e-12 -7.18805e-13 2.22167 -0.733487 -0.20892 -4.96916e-15 1.22687e-16 -3.47873e-16 -1.14863e-13 2.29845e-15 -2.78299e-15 -1.96991e-12 -4.89607e-13 -2.22639e-14 -2.22389e-11 1.04141e-12 -3.08514e-13 -5.25039e-11 1.20215e-12 -7.31528e-13 -9.06538e-11 2.0769e-12 -1.25393e-12 -5.25058e-11 1.20145e-12 -7.18805e-13 -7.73091 5.47488 -0.417314 -5.25021e-11 1.20195e-12 -7.31528e-13 -2.90554 0.965183 -0.102902 -5.25017e-11 1.20165e-12 -7.29142e-13 -10.2786 0.731801 -0.0259123 -5.24957e-11 1.20662e-12 -7.37889e-13 -2.22167 -0.733487 0.20892 -2.03217e-16 0.0 -3.88251e-19 -2.88816 -1.94435 0.0304156 -0.00797261 -2.07874 -0.0650927 -0.422285 4.00217 0.12712 2.03217e-16 0.0 3.88251e-19 -3.72548 -11.2507 0.483809 -0.0143127 14.7725 -0.388792 0.544941 -3.54242 0.0125006
-3.86342 82.3517 43.9212 -8.6289 -1.7965 5.29 -2.67478 -0.391184 -0.0150359 -1.67606 -2.16498 -0.251038 -3.91097 5.35508 -4.01583 8.88158 -4.86961 -7.18579 -0.0 0.0 0.0 -0.0 0.0 0.0 9.12293e-14 3.40204e-14 9.38132e-15 23.3686 3.26528 -1.2751 -3.44264 -1.43619 5.50814 0.278133 11.7465 1.52838 -1.89841e-10 8.07961e-10 -9.45522e-10 -3.60035e-10 1.40883e-09 -1.62311e-09 -1.89838e-10 8.07961e-10 -9.45538e-10 7.73091 5.47488 0.417314 -1.8984e-10 8.07959e-10 -9.45524e-10 2.90554 0.965183 0.102902 -1.89838e-10 8.07961e-10 -9.45525e-10 10.2786 0.731801 0.0259123 -1.89845e-10 8.07963e-10 -9.45518e-10 2.22167 -0.733487 -0.20892 9.10855e-14 3.40198e-14 8.97365e-15 -22.9497 -0.360133 1.69804 3.26137 -1.33165 -5.24555 -0.115829 7.57209 -1.0311 -5.94716e-10 -5.64382e-10 -7.4348e-10 -1.04272e-09 -9.82678e-10 -1.27095e-09 -5.94718e-10 -5.64382e-10 -7.43464e-10 -7.73091 5.47488 -0.417314 -5.94715e-10 -5.64382e-10 -7.43478e-10 -2.90554 0.965183 -0.102902 -5.94718e-10 -5.64382e-10 -7.43474e-10 -10.2786 0.731801 -0.0259123 -5.94711e-10 -5.64379e-10 -7.43479e-10 -2.22167 -0.733487 0.20892 -2.03217e-16 0.0 -3.88251e-19 -0.907558 -2.1468 6.567 0.000858966 -1.69896 0.0154893 -0.808614 1.70724 -5.65929 2.03217e-16 0.0 3.88251e-19 -3.31396 -9.58788 -10.0383 -0.0149376 14.0447 -0.32862 1.12865 -7.373 12.9807
-3.85024 82.3492 43.9261 -8.5753 -1.7596 5.2716 -0.870683 -0.796626 0.0779735 -2.17584 -4.48327 -0.301261 -7.22156 10.923 -8.37538 16.9427 -9.76792 -14.9413 -0.0 0.0 0.0 -0.0 0.0 0.0 1.97275e-13 7.17156e-14 2.06022e-14 48.2208 6.69308 -2.62994 -6.78767 -2.91295 11.3492 -0.168651 24.1547 3.37614 -3.53937e-10 1.71557e-09 -2.00041e-09 -6.79313e-10 2.99109e-09 -3.43363e-09 -3.53934e-10 1.71557e-09 -2.00042e-09 7.73091 5.47488 0.417314 -3.53934e-10 1.71557e-09 -2.0004e-09 2.90554 0.965183 0.102902 -3.53933e-10 1.71557e-09 -2.00041e-09 10.2786 0.731801 0.0259123 -3.53937e-10 1.71557e-09 -2.0004e-09 2.22167 -0.733487 -0.20892 1.97188e-13 7.17167e-14 2.02357e-14 -47.2001 -0.71966 3.49786 6.45355 -2.70716 -10.8135 0.0680913 15.5216 -2.17629 -1.19901e-09 -1.19887e-09 -1.57693e-09 -2.10393e-09 -2.08742e-09 -2.69582e-09 -1.19901e-09 -1.19887e-09 -1.57691e-09 -7.73091 5.47488 -0.417314 -1.19901e-09 -1.19887e-09 -1.57693e-09 -2.90554 0.965183 -0.102902 -1.19902e-09 -1.19887e-09 -1.57692e-09 -10.2786 0.731801 -0.0259123 -1.19901e-09 -1.19887e-09 -1.57692e-09 -2.22167 -0.733487 0.20892 -2.03217e-16 0.0 -3.88251e-19 1.24968 -2.31977 13.4824 0.00902506 -1.29563 0.10059 -1.71835 -0.686083 -11.7739 2.03217e-16 0.0 3.88251e-19 -2.20172 -7.59149 -21.0419 -0.013878 13.2741 -0.265619 3.58524 -10.5589 26.9468
-3.89568 82.3546 43.9286 -8.6714 -1.8555 5.2712 0.697801 -1.18613 0.189845 -2.6351 -6.55986 -0.339437 -9.42532 15.7437 -12.4697 22.988 -13.6807 -22.139 -0.0 0.0 0.0 -0.0 0.0 0.0 2.83231e-13 1.01811e-13 2.79452e-14 70.547 9.77628 -3.87545 -9.51043 -4.14957 16.5639 -1.39823 35.1274 5.49153 -4.64842e-10 2.42149e-09 -2.83513e-09 -8.99289e-10 4.22235e-09 -4.86681e-09 -4.64838e-10 2.42149e-09 -2.83513e-09 7.73091 5.47488 0.417314 -4.64836e-10 2.42148e-09 -2.83512e-09 2.90554 0.965183 0.102902 -4.64836e-10 2.42149e-09 -2.83513e-09 10.2786 0.731801 0.0259123 -4.64838e-10 2.42149e-09 -2.83512e-09 2.22167 -0.733487 -0.20892 2.83195e-13 1.01814e-13 2.76167e-14 -68.785 -1.0766 5.09493 9.06144 -3.86121 -15.7691 0.527946 22.6856 -3.32371 -1.67914e-09 -1.69555e-09 -2.22898e-09 -2.94685e-09 -2.95219e-09 -3.81035e-09 -1.67914e-09 -1.69555e-09 -2.22895e-09 -7.73091 5.47488 -0.417314 -1.67914e-09 -1.69555e-09 -2.22897e-09 -2.90554 0.965183 -0.102902 -1.67915e-09 -1.69555e-09 -2.22896e-09 -10.2786 0.731801 -0.0259123 -1.67914e-09 -1.69555e-09 -2.22896e-09 -2.22167 -0.733487 0.20892 -2.03217e-16 0.0 -3.88251e-19 3.18635 -2.44339 19.6449 0.0153171 -0.939392 0.176571 -2.95327 -2.72931 -17.2441 2.03217e-16 0.0 3.88251e-19 -0.661857 -5.76138 -30.8113 -0.0114927 12.5891 -0.209545 7.0984 -12.1397 39.6431
-3.9566 82.3658 43.9476 -8.8229 -1.9292 5.2196 1.67567 -1.53578 0.34886 -2.98448 -8.03223 -0.34597 -10.5048 19.0007 -15.5009 26.5751 -16.0128 -27.3823 -0.0 0.0 0.0 -0.0 0.0 0.0 3.18961e-13 1.12907e-13 2.55935e-14 86.2538 12.0158 -4.80191 -11.2537 -4.93892 20.1746 -2.9013 42.616 7.42953 -4.42765e-10 2.62319e-09 -3.11944e-09 -8.7101e-10 4.57611e-09 -5.35667e-09 -4.42761e-10 2.62319e-09 -3.11944e-09 7.73091 5.47488 0.417314 -4.42759e-10 2.62318e-09 -3.11943e-09 2.90554 0.965183 0.102902 -4.42759e-10 2.62319e-09 -3.11944e-09 10.2786 0.731801 0.0259123 -4.4276e-10 2.62319e-09 -3.11943e-09 2.22167 -0.733487 -0.20892 3.1896e-13 1.12912e-13 2.52953e-14 -83.7456 -1.43026 6.18457 10.7218 -4.59169 -19.1623 1.06163 27.9134 -4.26988 -1.84886e-09 -1.84772e-09 -2.4275e-09 -3.24402e-09 -3.21703e-09 -4.14907e-09 -1.84886e-09 -1.84772e-09 -2.42748e-09 -7.73091 5.47488 -0.417314 -1.84886e-09 -1.84772e-09 -2.42749e-09 -2.90554 0.965183 -0.102902 -1.84887e-09 -1.84772e-09 -2.42748e-09 -10.2786 0.731801 -0.0259123 -1.84886e-09 -1.84772e-09 -2.42748e-09 -2.22167 -0.733487 0.20892 -2.03217e-16 0.0 -3.88251e-19 4.48675 -2.52659 23.922 0.0192067 -0.700881 0.229802 -4.03922 -4.0743 -21.0674 2.03217e-16 0.0 3.88251e-19 0.635848 -4.53757 -37.6619 -0.009086 12.1185 -0.169927 10.0752 -12.3279 48.5792
-3.96102 82.3563 43.9911 -8.7149 -1.9022 5.2829 1.78661 -1.84698 0.573313 -3.17033 -8.66348 -0.307008 -10.7587 20.3005 -16.7701 27.8268 -16.7544 -29.5725 -0.0 0.0 0.0 -0.0 0.0 0.0 2.71936e-13 9.38635e-14 6.47098e-15 92.5668 13.1152 -5.26826 -11.8678 -5.20581 21.5125 -3.63496 45.2834 8.27883 -1.82265e-10 1.96012e-09 -2.47226e-09 -3.9956e-10 3.42545e-09 -4.25036e-09 -1.8226e-10 1.96012e-09 -2.47226e-09 7.73091 5.47488 0.417314 -1.82261e-10 1.96011e-09 -2.47225e-09 2.90554 0.965183 0.102902 -1.82259e-10 1.96012e-09 -2.47225e-09 10.2786 0.731801 0.0259123 -1.82261e-10 1.96012e-09 -2.47224e-09 2.22167 -0.733487 -0.20892 2.71953e-13 9.38718e-14 6.19921e-15 -89.4373 -1.85207 6.56069 11.2613 -4.81046 -20.3249 1.38359 30.5522 -4.78777 -1.50238e-09 -1.41635e-09 -1.84623e-09 -2.63296e-09 -2.46537e-09 -3.15348e-09 -1.50238e-09 -1.41635e-09 -1.84621e-09 -7.73091 5.47488 -0.417314 -1.50238e-09 -1.41635e-09 -1.84622e-09 -2.90554 0.965183 -0.102902 -1.50239e-09 -1.41635e-09 -1.84622e-09 -10.2786 0.731801 -0.0259123 -1.50238e-09 -1.41635e-09 -1.84621e-09 -2.22167 -0.733487 0.20892 -2.03217e-16 0.0 -3.88251e-19 4.84295 -2.60345 25.5516 0.0206694 -0.630654 0.251053 -4.50481 -4.58734 -22.55 2.03217e-16 0.0 3.88251e-19 1.01539 -4.10786 -40.4784 -0.00804289 11.9508 -0.153065 11.348 -12.1687 52.1808
-3.88103 82.3272 44.0177 -8.355 -1.8536 5.5112 1.28135 -2.12985 0.844587 -3.23942 -8.69367 -0.235415 -10.6133 20.2694 -16.6981 27.6515 -16.5417 -29.5043 -0.0 0.0 0.0 -0.0 0.0 0.0 1.66392e-13 5.34596e-14 -2.44785e-14 92.1325 13.4029 -5.39426 -11.7276 -5.12839 21.2213 -3.45418 44.5437 8.05073 2.46048e-10 6.86922e-10 -1.16738e-09 3.8389e-10 1.21335e-09 -2.01706e-09 2.46056e-10 6.86925e-10 -1.16738e-09 7.73091 5.47488 0.417314 2.4605e-10 6.86918e-10 -1.16737e-09 2.90554 0.965183 0.102902 2.46055e-10 6.86922e-10 -1.16737e-09 10.2786 0.731801 0.0259123 2.4605e-10 6.86922e-10 -1.16736e-09 2.22167 -0.733487 -0.20892 1.66415e-13 5.3472e-14 -2.47269e-14 -88.5177 -2.32037 6.4273 11.0448 -4.68716 -19.8907 1.45576 31.3447 -4.93819 -7.91074e-10 -5.72973e-10 -7.14861e-10 -1.38003e-09 -9.96053e-10 -1.21664e-09 -7.91079e-10 -5.72974e-10 -7.14852e-10 -7.73091 5.47488 -0.417314 -7.91073e-10 -5.72976e-10 -7.14859e-10 -2.90554 0.965183 -0.102902 -7.91081e-10 -5.72976e-10 -7.14853e-10 -10.2786 0.731801 -0.0259123 -7.9107e-10 -5.72975e-10 -7.14853e-10 -2.22167 -0.733487 0.20892 -2.03217e-16 0.0 -3.88251e-19 4.51635 -2.68779 25.2902 0.0206238 -0.680467 0.249468 -4.43491 -4.54962 -22.3492 2.03217e-16 0.0 3.88251e-19 0.619694 -4.20984 -40.4168 -0.00831379 11.9992 -0.152376 11.2759 -12.1936 52.0082
-3.83891 82.3124 44.045 -8.1378 -1.8521 5.6359 0.595124 -2.37354 1.13557 -3.27219 -8.47586 -0.151384 -10.3439 19.6905 -16.0789 26.9012 -15.9469 -28.5184 -0.0 0.0 0.0 -0.0 0.0 0.0 5.73427e-14 1.01776e-14 -5.50412e-14 88.9729 13.3217 -5.35158 -11.2859 -4.91372 20.2848 -2.94809 42.5052 7.43376 6.57888e-10 -5.7615e-10 1.43086e-10 1.13915e-09 -9.81879e-10 2.26253e-10 6.57897e-10 -5.76148e-10 1.43087e-10 7.73091 5.47488 0.417314 6.57886e-10 -5.76152e-10 1.43094e-10 2.90554 0.965183 0.102902 6.57894e-10 -5.7615e-10 1.4309e-10 10.2786 0.731801 0.0259123 6.57887e-10 -5.76147e-10 1.43099e-10 2.22167 -0.733487 -0.20892 5.73605e-14 1.01931e-14 -5.52788e-14 -84.9806 -2.6952 6.09445 10.5393 -4.43619 -18.856 1.39679 31.2402 -4.90062 -6.4428e-11 2.73231e-10 4.04766e-10 -1.01059e-10 4.77759e-10 6.99657e-10 -6.44352e-11 2.73228e-10 4.04766e-10 -7.73091 5.47488 -0.417314 -6.44278e-11 2.73226e-10 4.04765e-10 -2.90554 0.965183 -0.102902 -6.44329e-11 2.73226e-10 4.04769e-10 -10.2786 0.731801 -0.0259123 -6.44212e-11 2.73228e-10 4.04765e-10 -2.22167 -0.733487 0.20892 -2.03217e-16 0.0 -3.88251e-19 3.94596 -2.76605 24.2836 0.0200742 -0.772747 0.238975 -4.15127 -4.28908 -21.4696 2.03217e-16 0.0 3.88251e-19 -0.0466106 -4.51341 -39.1834 -0.00919833 12.1297 -0.158043 10.6675 -12.3091 50.3208
-3.83806 82.3154 44.078 -8.1152 -1.9185 5.6135 0.162392 -2.56726 1.41913 -3.34759 -8.36311 -0.0748985 -10.2068 19.3399 -15.7156 26.4191 -15.5294 -27.9551 -0.0 0.0 0.0 -0.0 0.0 0.0 -2.01091e-16 -1.75004e-14 -7.30037e-14 87.1219 13.3127 -5.31583 -10.998 -4.77032 19.6867 -2.67242 41.2795 7.08716 8.68966e-10 -1.20884e-09 8.07021e-10 1.52605e-09 -2.08193e-09 1.3626e-09 8.68976e-10 -1.20884e-09 8.07021e-10 7.73091 5.47488 0.417314 8.68962e-10 -1.20884e-09 8.07028e-10 2.90554 0.965183 0.102902 8.68972e-10 -1.20884e-09 8.07025e-10 10.2786 0.731801 0.0259123 8.68963e-10 -1.20884e-09 8.07034e-10 2.22167 -0.733487 -0.20892 -1.96583e-16 -1.74845e-14 -7.32521e-14 -82.8081 -2.83535 5.87223 10.2208 -4.27663 -18.2161 1.36251 31.185 -4.87972 3.28074e-10 7.13099e-10 9.50817e-10 5.88142e-10 1.24289e-09 1.63361e-09 3.28066e-10 7.13096e-10 9.50814e-10 -7.73091 5.47488 -0.417314 3.28074e-10 7.13093e-10 9.50814e-10 -2.90554 0.965183 -0.102902 3.28071e-10 7.13093e-10 9.50817e-10 -10.2786 0.731801 -0.0259123 3.28083e-10 7.13095e-10 9.50811e-10 -2.22167 -0.733487 0.20892 -2.03217e-16 0.0 -3.88251e-19 3.5779 -2.82135 23.6778 0.0200489 -0.829927 0.233499 -3.9802 -4.13161 -20.9169 2.03217e-16 0.0 3.88251e-19 -0.476476 -4.68437 -38.4837 -0.0099798 12.2083 -0.16025 10.3409 -12.3802 49.373
